<svg width="1024" height="1024" viewBox="0 0 1024 1024" fill="none" xmlns="http://www.w3.org/2000/svg">
  <defs>
    <linearGradient id="bg" x1="160" y1="120" x2="860" y2="920" gradientUnits="userSpaceOnUse">
      <stop stop-color="#0F7CFF"/>
      <stop offset="0.55" stop-color="#0FA7C6"/>
      <stop offset="1" stop-color="#12C27A"/>
    </linearGradient>
    <linearGradient id="doc" x1="350" y1="290" x2="690" y2="720" gradientUnits="userSpaceOnUse">
      <stop stop-color="#FFFFFF"/>
      <stop offset="1" stop-color="#D8F1FF"/>
    </linearGradient>
    <linearGradient id="line" x1="290" y1="520" x2="752" y2="520" gradientUnits="userSpaceOnUse">
      <stop stop-color="#FFB24C"/>
      <stop offset="1" stop-color="#FF6D3A"/>
    </linearGradient>
    <filter id="shadow" x="120" y="120" width="784" height="784" filterUnits="userSpaceOnUse" color-interpolation-filters="sRGB">
      <feFlood flood-opacity="0" result="BackgroundImageFix"/>
      <feColorMatrix in="SourceAlpha" type="matrix" values="0 0 0 0 0 0 0 0 0 0 0 0 0 0 0 0 0 0 127 0" result="hardAlpha"/>
      <feOffset dy="30"/>
      <feGaussianBlur stdDeviation="30"/>
      <feComposite in2="hardAlpha" operator="out"/>
      <feColorMatrix type="matrix" values="0 0 0 0 0.0196078 0 0 0 0 0.145098 0 0 0 0 0.298039 0 0 0 0.22 0"/>
      <feBlend mode="normal" in2="BackgroundImageFix" result="effect1_dropShadow_0_1"/>
      <feBlend mode="normal" in="SourceGraphic" in2="effect1_dropShadow_0_1" result="shape"/>
    </filter>
  </defs>

  <g filter="url(#shadow)">
    <rect x="150" y="150" width="724" height="724" rx="168" fill="url(#bg)"/>
    <circle cx="300" cy="305" r="120" fill="#72D9FF" fill-opacity="0.28"/>
    <circle cx="768" cy="742" r="122" fill="#FFF2A6" fill-opacity="0.18"/>

    <path d="M350 280C350 263.431 363.431 250 380 250H596L694 348V694C694 710.569 680.569 724 664 724H380C363.431 724 350 710.569 350 694V280Z" fill="url(#doc)"/>
    <path d="M596 250V322C596 336.359 607.641 348 622 348H694" fill="#C6E8FF"/>
    <rect x="408" y="370" width="226" height="28" rx="14" fill="#8EC8F5"/>
    <rect x="408" y="425" width="172" height="24" rx="12" fill="#B7DDF7"/>
    <rect x="408" y="470" width="146" height="24" rx="12" fill="#B7DDF7"/>

    <path d="M300 594H444C468.301 594 488 574.301 488 550V518C488 493.699 507.699 474 532 474H634" stroke="url(#line)" stroke-width="36" stroke-linecap="round" stroke-linejoin="round"/>
    <path d="M532 474H664C688.301 474 708 493.699 708 518V550C708 574.301 727.699 594 752 594H768" stroke="url(#line)" stroke-width="36" stroke-linecap="round" stroke-linejoin="round"/>

    <circle cx="300" cy="594" r="58" fill="#FFCB66"/>
    <circle cx="634" cy="474" r="58" fill="#FF8C4B"/>
    <circle cx="768" cy="594" r="58" fill="#FF6D3A"/>
    <circle cx="300" cy="594" r="28" fill="#FFF6DE" fill-opacity="0.95"/>
    <circle cx="634" cy="474" r="28" fill="#FFF6DE" fill-opacity="0.95"/>
    <circle cx="768" cy="594" r="28" fill="#FFF6DE" fill-opacity="0.95"/>
  </g>
</svg>
